# xmcd CD database file
#
# Track frame offsets:
#	182
#	36502
#	61782
#	83442
#	111825
#	141152
#	180075
#	217115
#	245862
#
# Disc length: 3762 seconds
#
# Revision: 1
# Processed by: cddbd v1.5.2PL0 Copyright (c) Steve Scherf et al.
# Submitted via: CDex 1.70beta2
#
DISCID=7a0eb009
DTITLE=Dimitri Ashkenazy - Francaix - Tanejev - Rimski-Korsakow - Moser
DYEAR=1998
DGENRE=Classical
TTITLE0=J. Francaix - Concerto for clarinet and orchestra - 1. Allegro
TTITLE1=J. Francaix - Concerto for clarinet and orchestra - 2. Scherzando - Trio - Da capo (Scherzando)
TTITLE2=J. Francaix - Concerto for clarinet and orchestra - 3. Andantino
TTITLE3=J. Francaix - Concerto for clarinet and orchestra - 4. Allegrissimo
TTITLE4=S. Tanejev - Canzona for clarinet and string orchestra
TTITLE5=N. Rimski-Korsakow - Concerto for clarinet and wind band
TTITLE6=R. Moser - Concerto for clarinet and strings op. 101 - 1. Allegro
TTITLE7=R. Moser - Concerto for clarinet and strings op. 101 - 2. Passacaglia: Andante
TTITLE8=R. Moser - Concerto for clarinet and strings op. 101 - 3. Vivace
EXTD=YEAR: 1998
EXTT0=
EXTT1=
EXTT2=
EXTT3=
EXTT4=
EXTT5=
EXTT6=
EXTT7=
EXTT8=
PLAYORDER=
